:SAMPLES-PER-SECOND 30
:FULLY-SPECIFIED
:DEGREES
397
root  50.0963 35.7883 0.804204 29.3903 85.2739 38.1278
RightUpLeg  17.3786 -4.57411 -5.73879
RightLeg  42.9591 6.67423 6.27658
RightFoot  -19.6409 0.742465 12.9136
RightToes  2.21189e-009 0 -3.6325e-017
Spine  3.97407 1.54615 0.304942
Spine1  6.47166 1.86681 -2.2988
HEad  -10.4868 3.75116 0.42085
LeftShoulder1  0.151422 2.97415 -22.2582
LeftArm  -16.0171 -17.6308 -34.2943
LeftForeArm  42.3567 -78.0274 -71.4667
LeftHand  -0.0573834 6.64232 -1.6792
RightShoulder  -0.281511 -4.55161 19.7089
RightArm  -16.4258 5.99079 38.6053
RightForeArm  72.7678 77.1225 114.054
RightHand  -0.125918 -1.43697 -3.52282
LeftUpLeg  -25.2799 3.50527 -4.81525
LeftLeg  23.394 -2.35217 -0.746149
LeftFoot  10.7753 -0.731901 3.41396
LeftToes  -3.01956e-010 3.07132e-011 1.04116e-011
398
root  51.1949 35.721 0.775399 34.5805 83.3026 43.6071
RightUpLeg  9.31262 -1.22498 -7.11726
RightLeg  57.3995 4.85806 7.73226
RightFoot  -5.47144 -0.715694 15.5791
RightToes  2.21189e-009 0 -3.6325e-017
Spine  6.43811 2.40507 -0.587611
Spine1  5.70944 2.8234 -3.86011
HEad  -12.2944 3.35274 -0.0391994
LeftShoulder1  0.350984 2.24499 -21.3962
LeftArm  -17.2084 -22.7063 -33.6378
LeftForeArm  28.8123 -76.6224 -57.6841
LeftHand  -0.0390443 5.79334 -1.87045
RightShoulder  -0.153035 -4.10496 17.4005
RightArm  -18.23 10.4234 39.5022
RightForeArm  56.8517 78.0456 97.9207
RightHand  -0.13517 -1.74843 -3.94417
LeftUpLeg  -24.992 3.05232 -6.34537
LeftLeg  26.9287 -0.31429 0.173639
LeftFoot  8.0592 -0.994903 5.51936
LeftToes  -3.01956e-010 3.07132e-011 1.04116e-011
399
root  52.1351 35.6163 0.763597 39.6831 81.7194 49.3174
RightUpLeg  1.25012 1.36815 -8.5036
RightLeg  69.129 3.3124 8.8089
RightFoot  4.84717 -1.58547 11.0111
RightToes  2.21189e-009 0 -3.6325e-017
Spine  7.66908 2.18055 -2.99929
Spine1  7.4518 2.25836 -3.69281
HEad  -14.2708 5.1723 -0.894119
LeftShoulder1  0.332709 2.26082 -20.2759
LeftArm  -20.8919 -27.6722 -31.3634
LeftForeArm  16.3928 -74.3253 -45.9677
LeftHand  -0.0179158 4.84659 -2.51188
RightShoulder  0.111897 -2.97138 14.9201
RightArm  -18.4501 19.9719 41.0851
RightForeArm  25.667 77.2792 68.2939
RightHand  -0.220425 -0.964969 -5.74786
LeftUpLeg  -24.4469 2.62773 -7.96059
LeftLeg  30.2086 0.913731 0.933232
LeftFoot  5.08892 -0.951712 6.3611
LeftToes  -3.01956e-010 3.07132e-011 1.04116e-011
400
root  53.1208 35.7855 0.752899 38.7053 81.1909 48.771
RightUpLeg  -5.39617 3.06954 -8.92062
RightLeg  75.5873 2.17012 8.55902
RightFoot  1.01344 -1.01019 9.41408
RightToes  2.21189e-009 0 -3.6325e-017
Spine  8.76788 2.11524 -3.50698
Spine1  8.51703 2.04864 -3.26284
HEad  -16.3202 5.6887 -1.64256
LeftShoulder1  0.443491 1.78559 -19.332
LeftArm  -24.3105 -32.9729 -28.7021
LeftForeArm  6.13279 -71.1878 -36.5782
LeftHand  -0.0161387 4.75873 -2.4424
RightShoulder  0.227399 -2.31149 12.237
RightArm  -20.1481 28.0743 41.1502
RightForeArm  5.51533 74.2635 48.1541
RightHand  -0.203634 -0.730897 -5.01046
LeftUpLeg  -22.8032 2.459 -8.34473
LeftLeg  31.4059 1.64342 1.44886
LeftFoot  2.76148 -0.83377 6.59053
LeftToes  -3.01956e-010 3.07132e-011 1.04116e-011
401
root  54.0081 36.0649 0.779947 40.3187 81.8379 50.1962
RightUpLeg  -11.6043 3.7582 -8.67019
RightLeg  76.5896 1.77299 7.416
RightFoot  -0.768556 -0.837697 8.97995
RightToes  2.21189e-009 0 -3.6325e-017
Spine  10.1468 1.75542 -2.90999
Spine1  8.13484 1.75839 -3.40501
HEad  -17.9963 5.47701 -2.03953
LeftShoulder1  0.574018 1.1852 -18.0897
LeftArm  -27.7178 -37.7682 -26.5831
LeftForeArm  -2.39666 -67.0635 -28.8757
LeftHand  -0.0508249 6.08192 -2.85391
RightShoulder  0.277146 -1.80567 9.07738
RightArm  -22.8138 34.6552 40.5372
RightForeArm  -8.17448 70.1916 36.092
RightHand  -0.252983 -0.871013 -6.47051
LeftUpLeg  -21.2812 2.08034 -8.21361
LeftLeg  31.3213 1.52008 1.36925
LeftFoot  1.17146 -0.725623 6.54835
LeftToes  -3.01956e-010 3.07132e-011 1.04116e-011
402
root  54.9161 36.493 0.803837 43.0167 82.2941 52.2558
RightUpLeg  -16.8379 4.30194 -9.00349
RightLeg  72.6698 1.86864 5.88383
RightFoot  -2.82227 -0.622315 8.06477
RightToes  2.21189e-009 0 -3.6325e-017
Spine  12.2257 1.38979 -2.97358
Spine1  5.05742 1.26664 -2.68536
HEad  -18.1228 6.17882 -2.59537
LeftShoulder1  0.53519 1.29635 -17.574
LeftArm  -30.2703 -42.8962 -23.0008
LeftForeArm  -9.76999 -62.1068 -23.0201
LeftHand  -0.0927617 7.54733 -2.52094
RightShoulder  0.348358 -1.04202 6.53685
RightArm  -24.867 40.5855 38.8241
RightForeArm  -19.9276 64.9646 27.4037
RightHand  -0.282363 -1.37901 -8.01318
LeftUpLeg  -19.3118 2.17009 -8.23007
LeftLeg  29.4842 1.0422 1.00943
LeftFoot  0.279095 -0.676223 6.61994
LeftToes  -3.01956e-010 3.07132e-011 1.04116e-011
403
root  55.813 36.9865 0.847749 46.7303 83.3324 55.443
RightUpLeg  -19.8585 4.61987 -8.92823
RightLeg  63.9839 1.85718 3.63367
RightFoot  -3.73556 -0.464565 6.6235
RightToes  2.21189e-009 0 -3.6325e-017
Spine  14.6294 0.844431 -2.47368
Spine1  1.34036 0.675543 -1.95033
HEad  -18.5637 6.37094 -2.82254
LeftShoulder1  0.623703 0.867864 -16.9914
LeftArm  -33.558 -46.9975 -18.4872
LeftForeArm  -15.7598 -56.4523 -18.434
LeftHand  -0.103641 7.37206 -3.43366
RightShoulder  0.380799 -0.276668 3.91856
RightArm  -28.6013 45.3015 36.1439
RightForeArm  -23.3742 59.6616 21.628
RightHand  -0.203958 -2.5545 -4.95325
LeftUpLeg  -16.8972 2.45071 -7.83446
LeftLeg  26.9665 0.150911 0.438123
LeftFoot  -0.119517 -0.638371 6.49802
LeftToes  -3.01956e-010 3.07132e-011 1.04116e-011
